<svg width="20" height="20" viewBox="0 0 20 20" fill="none" xmlns="http://www.w3.org/2000/svg">
<path fill-rule="evenodd" clip-rule="evenodd" d="M10 19C14.9706 19 19 14.9706 19 10C19 5.02944 14.9706 1 10 1C5.02944 1 1 5.02944 1 10C1 14.9706 5.02944 19 10 19ZM10 17C13.866 17 17 13.866 17 10C17 6.13401 13.866 3 10 3C6.13401 3 3 6.13401 3 10C3 13.866 6.13401 17 10 17Z" fill="white" fill-opacity="0.6"/>
<path fill-rule="evenodd" clip-rule="evenodd" d="M10 16C13.3137 16 16 13.3137 16 10C16 6.68629 13.3137 4 10 4C6.68629 4 4 6.68629 4 10C4 13.3137 6.68629 16 10 16ZM9.30713 10.4014C9.18538 10.6986 9.12451 11.0978 9.12451 11.5991H10.4995L10.521 11.2715C10.5604 10.9206 10.7161 10.6144 10.9883 10.353L11.4233 9.93945C11.7635 9.61003 12.0016 9.31104 12.1377 9.04248C12.2738 8.77035 12.3418 8.4821 12.3418 8.17773C12.3418 7.50814 12.1323 6.99072 11.7134 6.62549C11.2944 6.25667 10.7054 6.07227 9.94629 6.07227C9.19434 6.07227 8.59994 6.26562 8.16309 6.65234C7.72982 7.03906 7.5096 7.57438 7.50244 8.2583H9.06006C9.06722 7.97184 9.14958 7.74805 9.30713 7.58691C9.46826 7.4222 9.68131 7.33984 9.94629 7.33984C10.5049 7.33984 10.7842 7.64242 10.7842 8.24756C10.7842 8.44808 10.7305 8.63965 10.623 8.82227C10.5156 9.0013 10.299 9.23584 9.97314 9.52588C9.65088 9.81234 9.42887 10.1042 9.30713 10.4014V10.4014ZM9.21045 12.6572C9.04932 12.8112 8.96875 13.0081 8.96875 13.248C8.96875 13.4844 9.04753 13.6795 9.20508 13.8335C9.36621 13.9875 9.57747 14.0645 9.83887 14.0645C10.1003 14.0645 10.3097 13.9875 10.4673 13.8335C10.6284 13.6795 10.709 13.4844 10.709 13.248C10.709 13.0081 10.6266 12.8112 10.4619 12.6572C10.3008 12.4997 10.0931 12.4209 9.83887 12.4209C9.58464 12.4209 9.37516 12.4997 9.21045 12.6572Z" fill="white"/>
</svg>
