<svg width="20" height="20" viewBox="0 0 20 20" fill="none" xmlns="http://www.w3.org/2000/svg">
<path d="M8.05001 1.52631C8.83851 0.696309 10.1615 0.69631 10.95 1.52631L17.3957 8.31125C18.0008 8.94823 17.5493 10 16.6707 10H2.32932C1.45072 10 0.999189 8.94823 1.60432 8.31125L8.05001 1.52631Z" fill="#9E9E9E"/>
<path fill-rule="evenodd" clip-rule="evenodd" d="M16 11H3V18C3 18.5523 3.44772 19 4 19H7V15.5C7 14.1193 8.11929 13 9.5 13C10.8807 13 12 14.1193 12 15.5V19H15C15.5523 19 16 18.5523 16 18V11Z" fill="white"/>
<path d="M8 15.5C8 14.6716 8.67157 14 9.5 14C10.3284 14 11 14.6716 11 15.5V19H8V15.5Z" fill="#9E9E9E"/>
<path d="M13 2.5C13 1.67157 13.6716 1 14.5 1C15.3284 1 16 1.67157 16 2.5V5.85551L13 2.68424V2.5Z" fill="white"/>
</svg>
