<svg width="20" height="20" viewBox="0 0 20 20" fill="none" xmlns="http://www.w3.org/2000/svg">
<path fill-rule="evenodd" clip-rule="evenodd" d="M4 2C2.89543 2 2 2.89543 2 4V8.04397L6 8.04049V6.99628C6 5.38893 7.6948 4.43361 8.99067 5.36786L13.1801 8.38822C14.2733 9.17636 14.2733 10.8162 13.1801 11.6043L8.99067 14.6247C7.6948 15.559 6 14.6444 6 13.037V11.9928L2 11.9963V16C2 17.1046 2.89543 18 4 18H16C17.1046 18 18 17.1046 18 16V4C18 2.89543 17.1046 2 16 2H4Z" fill="black"/>
<path fill-rule="evenodd" clip-rule="evenodd" d="M12.5908 10.802L8.40866 13.8147C7.76186 14.2806 6.86341 13.8143 6.86341 13.0127V10.9856H2V9.01443H6.86341V6.98731C6.86341 6.18567 7.76186 5.71938 8.40866 6.18532L12.5908 9.19801C13.1364 9.59108 13.1364 10.4089 12.5908 10.802Z" fill="black"/>
</svg>
