<svg width="20" height="20" viewBox="0 0 20 20" fill="none" xmlns="http://www.w3.org/2000/svg">
<path d="M9 7C9 6.448 9.448 6 10 6C10.552 6 11 6.448 11 7V9H13C13.552 9 14 9.448 14 10C14 10.552 13.552 11 13 11H11V13C11 13.552 10.552 14 10 14C9.448 14 9 13.552 9 13V11H7C6.448 11 6 10.552 6 10C6 9.448 6.448 9 7 9H9V7Z" fill="black"/>
<path d="M10 1C14.971 1 19 5.029 19 10C19 14.971 14.971 19 10 19C5.029 19 1 14.971 1 10C1 5.029 5.029 1 10 1ZM5 10C5 11.105 5.895 12 7 12H8V13C8 14.105 8.895 15 10 15C11.105 15 12 14.105 12 13V12H13C14.105 12 15 11.105 15 10C15 8.895 14.105 8 13 8H12V7C12 5.895 11.105 5 10 5C8.895 5 8 5.895 8 7V8H7C5.895 8 5 8.895 5 10Z" fill="black"/>
</svg>
