<svg width="20" height="20" viewBox="0 0 20 20" fill="none" xmlns="http://www.w3.org/2000/svg">
<path fill-rule="evenodd" clip-rule="evenodd" d="M10.8293 6C10.9398 5.68722 11 5.35064 11 5C11 4.64936 10.9398 4.31278 10.8293 4H17C17.5523 4 18 4.44772 18 5C18 5.55228 17.5523 6 17 6H10.8293ZM5.17071 6H3C2.44772 6 2 5.55228 2 5C2 4.44772 2.44772 4 3 4H5.17071C5.06015 4.31278 5 4.64936 5 5C5 5.35064 5.06015 5.68722 5.17071 6ZM10.8293 16C10.9398 15.6872 11 15.3506 11 15C11 14.6494 10.9398 14.3128 10.8293 14H17C17.5523 14 18 14.4477 18 15C18 15.5523 17.5523 16 17 16H10.8293ZM5.17071 16H3C2.44772 16 2 15.5523 2 15C2 14.4477 2.44772 14 3 14H5.17071C5.06015 14.3128 5 14.6494 5 15C5 15.3506 5.06015 15.6872 5.17071 16ZM15 10C15 10.3506 14.9398 10.6872 14.8293 11H17C17.5523 11 18 10.5523 18 10C18 9.44772 17.5523 9 17 9H14.8293C14.9398 9.31278 15 9.64936 15 10ZM3 11H9.17071C9.06015 10.6872 9 10.3506 9 10C9 9.64936 9.06015 9.31278 9.17071 9H3C2.44772 9 2 9.44772 2 10C2 10.5523 2.44772 11 3 11Z" fill="white" fill-opacity="0.6"/>
<path fill-rule="evenodd" clip-rule="evenodd" d="M10 5C10 6.10457 9.10457 7 8 7C6.89543 7 6 6.10457 6 5C6 3.89543 6.89543 3 8 3C9.10457 3 10 3.89543 10 5ZM10 15C10 16.1046 9.10457 17 8 17C6.89543 17 6 16.1046 6 15C6 13.8954 6.89543 13 8 13C9.10457 13 10 13.8954 10 15ZM12 12C13.1046 12 14 11.1046 14 10C14 8.89543 13.1046 8 12 8C10.8954 8 10 8.89543 10 10C10 11.1046 10.8954 12 12 12Z" fill="white"/>
</svg>
