<svg width="20" height="20" viewBox="0 0 20 20" fill="none" xmlns="http://www.w3.org/2000/svg">
<path fill-rule="evenodd" clip-rule="evenodd" d="M3 11.1757V16.5C3 17.3284 3.67157 18 4.5 18C5.32843 18 6 17.3284 6 16.5V9.5C6 9.49593 5.99998 9.49187 5.99995 9.48782L5.78457 9.23114L4.02239 10.7098C3.71898 10.9644 3.3647 11.1185 3 11.1757V11.1757ZM8 11.5538V16.5C8 17.3284 8.67157 18 9.5 18C10.3284 18 11 17.3284 11 16.5V10.5974L10.221 11.2511C9.58051 11.7885 8.71343 11.8783 8 11.5538ZM13.0145 9.29067C13.0049 9.35907 13 9.42896 13 9.5V16.5C13 17.3284 13.6716 18 14.5 18C15.3284 18 16 17.3284 16 16.5V10.6426C15.2147 10.9419 14.2609 10.7761 13.6367 10.0322L13.0145 9.29067Z" fill="white" fill-opacity="0.6"/>
<path fill-rule="evenodd" clip-rule="evenodd" d="M10.7149 2.27346L16.4816 1.82274C17.2343 1.76392 17.8211 2.46332 17.6325 3.19428L16.1872 8.7952C15.9637 9.6615 14.8545 9.9128 14.2794 9.22744L12.8256 7.49481L9.45486 10.3232C8.98947 10.7137 8.29561 10.653 7.9051 10.1876L5.78453 7.66037L3.25629 9.78181C2.79101 10.1722 2.09733 10.1115 1.70691 9.64626C1.31649 9.18097 1.37718 8.48729 1.84246 8.09687L5.21337 5.26835C5.67877 4.87783 6.37262 4.93854 6.76313 5.40393L8.88371 7.93113L11.4117 5.80987L9.95788 4.07724C9.38279 3.39187 9.82289 2.34317 10.7149 2.27346V2.27346Z" fill="white"/>
</svg>
