<svg width="20" height="20" viewBox="0 0 20 20" fill="none" xmlns="http://www.w3.org/2000/svg">
<path fill-rule="evenodd" clip-rule="evenodd" d="M5.5 4C4.67157 4 4 4.67157 4 5.5C4 6.32843 4.67157 7 5.5 7H14.5C15.3284 7 16 6.32843 16 5.5C16 4.67157 15.3284 4 14.5 4H5.5ZM5.5 14C4.67157 14 4 14.6716 4 15.5C4 16.3284 4.67157 17 5.5 17H14.5C15.3284 17 16 16.3284 16 15.5C16 14.6716 15.3284 14 14.5 14H5.5Z" fill="white" fill-opacity="0.6"/>
<path d="M15.5 8H4.5C3.11929 8 2 9.11929 2 10.5C2 11.8807 3.11929 13 4.5 13H15.5C16.8807 13 18 11.8807 18 10.5C18 9.11929 16.8807 8 15.5 8Z" fill="white"/>
</svg>
