<svg width="20" height="20" viewBox="0 0 20 20" fill="none" xmlns="http://www.w3.org/2000/svg">
<path d="M14.8461 6.8C14.8461 9.451 12.6761 11.6 10.0001 11.6C7.32405 11.6 5.15405 9.451 5.15405 6.8C5.15405 4.149 7.32405 2 10.0001 2C12.6761 2 14.8461 4.149 14.8461 6.8Z" fill="black"/>
<path d="M5.97 11.099C4.155 11.995 3.004 13.843 3 15.867C3 17.045 3.964 18 5.154 18H14.846C16.036 18 17 17.045 17 15.867C16.996 13.843 15.845 11.995 14.03 11.099C12.932 12.11 11.493 12.67 10 12.667C8.507 12.67 7.068 12.11 5.97 11.099Z" fill="black"/>
</svg>
